<svg xmlns="http://www.w3.org/2000/svg" xmlns:xlink="http://www.w3.org/1999/xlink" id="Layer_1" data-name="Layer 1" viewBox="0 0 474 105.91" width="474"  height="105.91" ><defs><style>.cls-1{fill:none;}.cls-2{opacity:0.54;}.cls-3{clip-path:url(#clip-path);}.cls-4{opacity:0.5;}.cls-5{clip-path:url(#clip-path-2);}.cls-6{fill:url(#linear-gradient);}.cls-7{fill:url(#linear-gradient-2);}.cls-8{fill:url(#linear-gradient-3);}.cls-9{fill:url(#linear-gradient-4);}.cls-10{fill:#181f28;}</style><clipPath id="clip-path"><rect class="cls-1" x="1580.82" y="400.61" width="970.8" height="814.19"/></clipPath><clipPath id="clip-path-2"><rect class="cls-1" x="1523.21" y="398.84" width="1264.73" height="814.44"/></clipPath><linearGradient id="linear-gradient" x1="7735.86" y1="-290.46" x2="7424.85" y2="195.01" gradientTransform="translate(-6377.98)" gradientUnits="userSpaceOnUse"><stop offset="0" stop-color="#8062f7"/><stop offset="0.23" stop-color="#539be7"/><stop offset="0.41" stop-color="#37bedd"/><stop offset="0.5" stop-color="#2cccd9"/><stop offset="1" stop-color="#8be9ae"/></linearGradient><linearGradient id="linear-gradient-2" x1="8285.34" y1="57.27" x2="7865.56" y2="955.61" xlink:href="#linear-gradient"/><linearGradient id="linear-gradient-3" x1="84.66" y1="3.74" x2="-5.43" y2="93.84" gradientUnits="userSpaceOnUse"><stop offset="0" stop-color="#8062f7"/><stop offset="0.25" stop-color="#539be7"/><stop offset="0.43" stop-color="#37bedd"/><stop offset="0.53" stop-color="#2cccd9"/><stop offset="1" stop-color="#8be9ae"/></linearGradient><linearGradient id="linear-gradient-4" x1="107.03" y1="26.11" x2="16.94" y2="116.21" xlink:href="#linear-gradient-3"/></defs><title>logo-Planium</title><g class="cls-5"><path class="cls-6" d="M1321.31,1034v-283a178.57,178.57,0,0,1-155.27.3V985.9H617.35c-221.74,0-402.14-180.39-402.14-402.13,0-191.53,155.79-347.31,347.31-347.31h310V-320.29h447.35c163.95,0,297.33,133.38,297.33,297.33h155.27c0-249.56-203-452.61-452.6-452.61H824.42A107.29,107.29,0,0,0,717.27-368.42V81.19H562.52c-277.1,0-502.58,225.47-502.58,502.58,0,307.35,250.06,557.4,557.41,557.4h596.81A107.28,107.28,0,0,0,1321.31,1034Z"/><path class="cls-7" d="M1789.37,3,1083.88,18.26a132,132,0,0,0-132,132V642c0,1.37.34,2.65.4,4,2.14,50.93,43.77,91.63,95.22,91.63A95.63,95.63,0,0,0,1143.15,642V209.5H1819c275.36,0,498.94,225.78,495.3,502-3.1,235.1-201.48,421.15-436.59,421.15H1637.06a132,132,0,0,0-132,132v553.75h-551c-201.94,0-366.23-164.29-366.23-366.23H396.58c0,307.38,250.09,557.47,557.48,557.47h610.27a132,132,0,0,0,132-132V1323.84l146.58-15.23c348,0,639.79-284.82,632.95-632.77C2468.49,303.57,2163.35,3,1789.37,3Z"/></g><path class="cls-8" d="M61.28,71.75V59.16a8,8,0,0,1-3.47.8,8.07,8.07,0,0,1-3.44-.78V69.61H30A17.9,17.9,0,0,1,12.08,51.72,15.46,15.46,0,0,1,27.53,36.28H41.32V11.51H61.21A13.25,13.25,0,0,1,74.44,24.74h6.9A20.15,20.15,0,0,0,61.21,4.61h-22a4.77,4.77,0,0,0-4.77,4.76v20H27.53A22.38,22.38,0,0,0,5.17,51.72,24.83,24.83,0,0,0,30,76.52H56.51A4.78,4.78,0,0,0,61.28,71.75Z"/><path class="cls-9" d="M85.67,29.4H59.12a4.76,4.76,0,0,0-4.76,4.76V51.92s0,.1,0,.15a3.45,3.45,0,0,0,6.89-.15V36.31H85.67a17.9,17.9,0,0,1,17.88,18.12A15.64,15.64,0,0,1,87.79,69.64H79.1a4.76,4.76,0,0,0-4.77,4.77v20H54.43A13.23,13.23,0,0,1,41.21,81.18H34.3a20.15,20.15,0,0,0,20.13,20.13h22a4.78,4.78,0,0,0,4.77-4.77v-20H87.6c12.56,0,23.1-10.28,22.85-22.85A24.81,24.81,0,0,0,85.67,29.4Z"/><path class="cls-10" d="M161.53,33.51,149,33.45h0a3.42,3.42,0,0,0-3.46,3.45L145.39,69a3.39,3.39,0,0,0,3.45,3.42h0a3.36,3.36,0,0,0,3.4-3.38l.05-8.09,8.29,0h.11a18.45,18.45,0,0,0,11.36-3.45,12.62,12.62,0,0,0,4.79-10.28v-.12C176.89,38.89,170.88,33.55,161.53,33.51Zm8.34,13.84c0,4.45-3.62,7.43-9,7.43h-.06l-8.52,0,.07-15.05,8.52,0c5.71,0,9,2.76,9,7.51Z"/><path class="cls-10" d="M218,66.15l-18.69-.09V65.9l.15-29.15a3.4,3.4,0,0,0-3.39-3.42h0a3.5,3.5,0,0,0-2.45,1,3.43,3.43,0,0,0-1,2.41l-.15,32.07a3.43,3.43,0,0,0,1,2.47,3.51,3.51,0,0,0,2.46,1l22.09.1h0a3.09,3.09,0,0,0,2.19-.9,3.06,3.06,0,0,0,.92-2.2,3.12,3.12,0,0,0-.9-2.2A3.06,3.06,0,0,0,218,66.15Z"/><path class="cls-10" d="M320.61,33.32h0a3.35,3.35,0,0,0-3.34,3.33l-.12,23.78-.28-.34L296.51,35.83c-1-1.27-2-2.06-3.61-2.06h-.76a3.48,3.48,0,0,0-2.46,1,3.42,3.42,0,0,0-1,2.44l-.16,32.06a3.28,3.28,0,0,0,1,2.37,3.4,3.4,0,0,0,2.41,1h0a3.35,3.35,0,0,0,3.35-3.33l.12-24.15,21.2,25.36a4.39,4.39,0,0,0,3.6,2.12h.31a3.35,3.35,0,0,0,3.35-3.39L324,36.68a3.36,3.36,0,0,0-1-2.37A3.43,3.43,0,0,0,320.61,33.32Z"/><path class="cls-10" d="M349,33.29h0a3.42,3.42,0,0,0-2.45,1,3.35,3.35,0,0,0-1,2.4l-.16,32.53a3.39,3.39,0,0,0,1,2.42,3.49,3.49,0,0,0,2.46,1h0a3.38,3.38,0,0,0,3.4-3.39l.16-32.52a3.43,3.43,0,0,0-1-2.42A3.38,3.38,0,0,0,349,33.29Z"/><path class="cls-10" d="M404.67,33.27h0a3.5,3.5,0,0,0-2.45,1,3.36,3.36,0,0,0-1,2.41l-.1,18.17c0,7.38-3.73,11.45-10.42,11.45h-.08a9.91,9.91,0,0,1-7.69-3.06c-1.85-2-2.78-5-2.76-8.78l.09-17.88a3.37,3.37,0,0,0-3.39-3.42h0a3.39,3.39,0,0,0-3.46,3.39l-.1,18.17c0,5.75,1.53,10.25,4.61,13.35s7.29,4.54,12.56,4.57h.13c11,0,17.33-6.6,17.39-18.11l.09-17.82a3.38,3.38,0,0,0-3.39-3.42Z"/><path class="cls-10" d="M467.84,34.42a3.46,3.46,0,0,0-2.46-1h-.78a3.46,3.46,0,0,0-3.12,1.78l-12.68,15-.13-.17-12.3-14.92a3.61,3.61,0,0,0-3.19-1.88h-.78a3.43,3.43,0,0,0-3.46,3.45l-.16,32.57a3.28,3.28,0,0,0,3.33,3.36h0a3.34,3.34,0,0,0,3.4-3.33l.11-23.2,10,10.75c.93.93,1.52,1.84,3.05,1.84s2.07-.72,3.09-1.71L461.92,46.1l-.12,23.25a3.45,3.45,0,0,0,3.39,3.42h0a3.4,3.4,0,0,0,3.46-3.39l.16-32.51A3.5,3.5,0,0,0,467.84,34.42Z"/><path class="cls-10" d="M257.56,36.12a4.28,4.28,0,0,0-4.11-2.84h-.38a4.38,4.38,0,0,0-4.16,2.81l-14.48,31.8a3.54,3.54,0,0,0-.46,1.56,3.14,3.14,0,0,0,3.16,3.19h0a3.3,3.3,0,0,0,3.18-2.16l1.28-2.9h22.7l1.11,2.6a3.57,3.57,0,0,0,3.35,2.43h0A3.22,3.22,0,0,0,272,69.33a3,3,0,0,0-.38-1.44Zm-13.21,25.2,8.77-19.91,8.51,19.91Z"/></svg>